<?xml version="1.0" encoding="utf-8"?>
<!-- Generator: Adobe Illustrator 20.1.0, SVG Export Plug-In . SVG Version: 6.00 Build 0)  -->
<svg version="1.1" id="Layer_1" xmlns="http://www.w3.org/2000/svg" xmlns:xlink="http://www.w3.org/1999/xlink" x="0px" y="0px"
	 width="574.7px" height="152.2px" viewBox="0 0 574.7 152.2" style="enable-background:new 0 0 574.7 152.2;" xml:space="preserve"
	>
<style type="text/css">
	.st0{fill:#FFFFFF;}
</style>
<g>
	<path class="st0" d="M216.2,43.2c-2.2,0-4.1,1.7-4.1,4.1v1.5c0,2.2,1.9,4.1,4.1,4.1c2.2,0,4-1.9,4-4.1v-1.5
		C220.2,44.9,218.5,43.2,216.2,43.2z"/>
	<path class="st0" d="M216.1,58.1c-2.2,0-4,1.8-4,4.1v38.4c-2.4,0-4.1,1.8-4.1,4c0,2.4,1.7,4.1,4.1,4.1c4.5,0,8.1-3.7,8.1-8.1V62.2
		C220.1,59.9,218.4,58.1,216.1,58.1z"/>
	<path class="st0" d="M250.1,58.1c-5.2,0-9.5,2.2-12.8,5.7c-3.2,3.6-5.1,8-5.1,13.1c0,5.2,1.9,9.9,5.1,13.1
		c3.4,3.5,7.7,5.7,12.8,5.7c4.9,0,9.4-2.2,12.5-5.7c3.4-3.3,5.2-7.9,5.2-13.1c0-5.1-1.9-9.5-5.2-13.1
		C259.5,60.2,255,58.1,250.1,58.1z M257,84.7c-1.9,1.8-4.3,2.8-6.9,2.8c-2.8,0-5.3-1-7.2-2.8c-1.7-2.1-2.7-4.7-2.7-7.9
		c0-3.1,1-5.7,2.7-7.8c1.9-1.6,4.3-2.8,7.2-2.8c2.6,0,5,1.2,6.9,2.8c1.9,2,2.9,4.7,2.9,7.8C259.9,80,258.8,82.6,257,84.7z"/>
	<path class="st0" d="M298.6,58.1c-3.7,0-7.2,1.2-10,3.1v-14c0-2.2-1.8-4-4.1-4c-2.2,0-4,1.9-4,4v29.6c0,0,0,0,0,0.1v14.6
		c0,2.2,1.8,4,4,4c2,0,3.6-1.4,4-3.2c2.8,1.9,6.4,3.2,10.2,3.2c10.1,0,18.1-8.5,18.1-18.6C316.7,66.6,308.7,58.1,298.6,58.1z
		 M305.6,84.2c-1.9,1.9-4.3,3.1-7,3.1c-2.8,0-5.2-1.1-7-3.1c-1.9-1.9-3-4.6-3-7.4c0-3,1.1-5.7,3-7.5c1.9-1.9,4.3-3.1,7-3.1
		c2.7,0,5.2,1.1,7,3.1c1.9,1.9,3,4.6,3,7.5C308.6,79.6,307.5,82.3,305.6,84.2z"/>
	<path class="st0" d="M347.9,58.1c-3.7,0-7.2,1.2-10,3.1v-14c0-2.2-1.8-4-4.1-4c-2.2,0-4,1.9-4,4v29.6c0,0,0,0,0,0.1v14.6
		c0,2.2,1.8,4,4,4c2,0,3.6-1.4,4-3.2c2.8,1.9,6.4,3.2,10.2,3.2c10.1,0,18.1-8.5,18.1-18.6C366,66.6,357.9,58.1,347.9,58.1z
		 M354.9,84.2c-1.9,1.9-4.3,3.1-7,3.1c-2.8,0-5.2-1.1-7-3.1c-1.9-1.9-3-4.6-3-7.4c0-3,1.1-5.7,3-7.5c1.9-1.9,4.3-3.1,7-3.1
		c2.7,0,5.2,1.1,7,3.1c1.9,1.9,3,4.6,3,7.5C357.9,79.6,356.8,82.3,354.9,84.2z"/>
	<path class="st0" d="M406.6,58.1c-1.9,0-3.4,1.4-3.9,3.3c-2.8-2-6.2-3.3-9.9-3.3c-5.1,0-9.5,2.2-12.7,5.6c-3.2,3.4-5.1,8-5.1,13.1
		c0,5.1,1.9,9.7,5.1,13.1c3.2,3.4,7.6,5.4,12.7,5.4c3.7,0,7.1-1.2,9.9-3.2c0.4,1.8,1.9,3.2,3.9,3.2c2.2,0,4-1.8,4-4V76.8V62.1
		C410.6,59.9,408.8,58.1,406.6,58.1z M399.7,84.5c-1.8,1.9-4.3,2.9-6.9,2.9c-2.7,0-5.2-1-6.9-2.9c-1.8-1.9-2.8-4.6-2.8-7.7
		c0-3.1,1-5.8,2.8-7.7c1.7-2,4.3-3.1,6.9-3.1c2.6,0,5.1,1,6.9,3.1c1.8,1.9,2.9,4.6,2.9,7.7C402.6,79.9,401.5,82.5,399.7,84.5z"/>
	<path class="st0" d="M437.8,58.1h-1.9V47.2c0-2.3-1.8-4.1-4.1-4.1s-4.2,1.8-4.2,4.1v10.8h-2.2c-2.3,0-4.1,1.8-4.1,4.1
		c0,2.2,1.8,4.1,4.1,4.1h2.2v20.8c0,4.6,3.7,8.3,8.3,8.3c2.3,0,4.1-1.8,4.1-4.1c0-2.3-1.8-4.2-4.1-4.2V66.3h1.9
		c2.2,0,4.2-1.9,4.2-4.1C442,59.9,440,58.1,437.8,58.1z"/>
	<path class="st0" d="M459.1,43.1c-2.2,0-4,1.8-4,4v1.6c0,2.2,1.8,4.1,4,4.1c2.3,0,4-1.9,4-4.1v-1.6
		C463.2,44.9,461.5,43.1,459.1,43.1z"/>
	<path class="st0" d="M459.1,58.1c-2.2,0-4,1.7-4,4.1v29.1c0,2.2,1.8,4,4,4c2.3,0,4-1.8,4-4V62.2C463.2,59.9,461.5,58.1,459.1,58.1z
		"/>
	<path class="st0" d="M492.4,66c2.8,0,5.1,1,7.1,2.4c1.7,1.3,4.1,1,5.6-0.7c1.2-1.6,0.9-4.2-0.8-5.5c-3.2-2.5-7.4-4.1-11.9-4.1
		c-10.3,0.1-19,8.4-19,18.7c0,10.2,8.7,18.6,19,18.6c4.5,0,8.7-1.6,11.9-4c1.7-1.5,2-3.9,0.8-5.5c-1.5-1.8-4-2.1-5.6-0.8
		c-1.9,1.4-4.4,2.4-7.1,2.4c-6,0-11-4.9-11-10.7C481.3,71,486.3,66,492.4,66z"/>
	<path class="st0" d="M546.2,58.1c-1.9,0-3.4,1.4-3.9,3.3c-2.8-2-6.2-3.3-9.9-3.3c-5.1,0-9.5,2.2-12.7,5.6c-3.2,3.4-5.1,8-5.1,13.1
		c0,5.1,1.9,9.7,5.1,13.1c3.2,3.4,7.6,5.4,12.7,5.4c3.7,0,7.1-1.2,9.9-3.2c0.4,1.8,1.9,3.2,3.9,3.2c2.2,0,4-1.8,4-4V76.8V62.1
		C550.2,59.9,548.4,58.1,546.2,58.1z M539.4,84.5c-1.8,1.9-4.3,2.9-6.9,2.9c-2.7,0-5.2-1-6.9-2.9c-1.8-1.9-2.8-4.6-2.8-7.7
		c0-3.1,1-5.8,2.8-7.7c1.7-2,4.3-3.1,6.9-3.1c2.6,0,5.1,1,6.9,3.1c1.8,1.9,2.9,4.6,2.9,7.7C542.3,79.9,541.2,82.5,539.4,84.5z"/>
	<path class="st0" d="M570.5,43.1c-2.2,0-4.1,1.9-4.1,4.1v44c0,2.2,1.9,4.1,4.1,4.1c2.3,0,4.2-1.9,4.2-4.1v-44
		C574.7,45,572.8,43.1,570.5,43.1z"/>
	<path class="st0" d="M135.7,14.6C130.5,5.6,120.8,0,110.3,0H56.3C45.9,0,36.1,5.6,30.9,14.6l-27,46.8c-5.2,9-5.2,20.2,0,29.3
		l27,46.8c5.2,9,14.9,14.6,25.3,14.6h54.1c10.4,0,20.1-5.6,25.3-14.6l27-46.8c5.2-9,5.2-20.2,0-29.3L135.7,14.6z M155.5,86.6
		l-27,46.8c-3.7,6.5-10.7,10.5-18.2,10.5H56.3c-7.5,0-14.4-4-18.2-10.5l-27-46.8c-3.7-6.5-3.7-14.5,0-21l27-46.8
		c3.7-6.5,10.7-10.5,18.2-10.5h54.1c7.5,0,14.4,4,18.2,10.5l27,46.8C159.3,72.1,159.3,80.1,155.5,86.6z"/>
	<path class="st0" d="M83.3,36c-17,0-30.8,13.8-30.8,30.8s25.7,51.4,30.8,51.4c5.1,0,30.8-34.4,30.8-51.4S100.3,36,83.3,36z
		 M83.3,87.4c-11.3,0-20.6-9.2-20.6-20.6c0-11.3,9.2-20.6,20.6-20.6c11.3,0,20.6,9.2,20.6,20.6C103.9,78.2,94.6,87.4,83.3,87.4z"/>
</g>
</svg>
