<?xml version="1.0" encoding="UTF-8"?>
<svg width="153px" height="36px" viewBox="0 0 153 36" version="1.1" xmlns="http://www.w3.org/2000/svg" xmlns:xlink="http://www.w3.org/1999/xlink">
    <!-- Generator: Sketch 43.1 (39012) - http://www.bohemiancoding.com/sketch -->
    <title>JB_horizontal_positive Copy 34</title>
    <desc>Created with Sketch.</desc>
    <defs>
        <polygon id="path-1" points="0 35.977732 0 0.160329897 152.135888 0.160329897 152.135888 35.977732"></polygon>
    </defs>
    <g id="Page-1" stroke="none" stroke-width="1" fill="none" fill-rule="evenodd">
        <g id="JB-nav-NU-v02" transform="translate(-40.000000, -23.000000)">
            <g id="JB_horizontal_positive-Copy-34" transform="translate(40.000000, 23.000000)">
                <path d="M49.5937225,9.87402062 L49.5937225,10.3149278 C49.5937225,10.9540206 50.1400448,11.5274227 50.7943824,11.5274227 C51.4494549,11.5274227 51.9729984,10.9540206 51.9729984,10.3149278 L51.9729984,9.87402062 C51.9729984,9.16812371 51.4494549,8.66078351 50.7943824,8.66078351 C50.1400448,8.66078351 49.5937225,9.16812371 49.5937225,9.87402062 Z" id="Fill-1" fill="#1C75BC"></path>
                <path d="M50.7510293,13.0490722 C50.1176335,13.0490722 49.5724133,13.5786804 49.5724133,14.2623093 L49.5724133,25.5967423 C48.873253,25.5967423 48.371386,26.1259794 48.371386,26.7658144 C48.371386,27.4709691 48.873253,27.9783093 49.5724133,27.9783093 C50.881456,27.9783093 51.9296454,26.897567 51.9296454,25.5967423 L51.9296454,14.2623093 C51.9296454,13.5786804 51.4277783,13.0490722 50.7510293,13.0490722" id="Fill-2" fill="#1C75BC"></path>
                <path d="M62.2465769,20.9219381 C61.7009894,21.4511753 61.0021965,21.7376907 60.2383739,21.7376907 C59.408787,21.7376907 58.6886849,21.4511753 58.1423626,20.9219381 C57.6404955,20.3043711 57.3568635,19.5324124 57.3568635,18.5841649 C57.3568635,17.6800825 57.6404955,16.8865979 58.1423626,16.2909278 C58.6886849,15.8058557 59.408787,15.4529072 60.2383739,15.4529072 C61.0021965,15.4529072 61.7009894,15.8058557 62.2465769,16.2909278 C62.7925318,16.8865979 63.0982078,17.6800825 63.0982078,18.5841649 C63.0982078,19.5324124 62.7925318,20.3043711 62.2465769,20.9219381 Z M60.2383739,13.0490722 C58.732038,13.0490722 57.465981,13.6889072 56.4831887,14.7251134 C55.5448516,15.7839588 54.9772201,17.0847835 54.9772201,18.5841649 C54.9772201,20.1280825 55.5448516,21.4949691 56.4831887,22.4654845 C57.465981,23.5016907 58.732038,24.1415258 60.2383739,24.1415258 C61.6793128,24.1415258 62.9890903,23.5016907 63.8837069,22.4654845 C64.8661318,21.4949691 65.4120867,20.1280825 65.4120867,18.5841649 C65.4120867,17.0847835 64.8661318,15.7839588 63.8837069,14.7251134 C62.9890903,13.6889072 61.6793128,13.0490722 60.2383739,13.0490722 L60.2383739,13.0490722 Z" id="Fill-3" fill="#1C75BC"></path>
                <path d="M76.0122829,20.7675464 C75.466328,21.3409485 74.7462259,21.6716289 73.9599921,21.6716289 C73.1528164,21.6716289 72.4536561,21.3409485 71.908436,20.7675464 C71.3624811,20.2160412 71.0351286,19.4221856 71.0351286,18.5841649 C71.0351286,17.7019794 71.3624811,16.9081237 71.908436,16.3573608 C72.4536561,15.7839588 73.1528164,15.4529072 73.9599921,15.4529072 C74.7462259,15.4529072 75.466328,15.7839588 76.0122829,16.3573608 C76.5578704,16.9081237 76.8859578,17.7019794 76.8859578,18.5841649 C76.8859578,19.4221856 76.5578704,20.2160412 76.0122829,20.7675464 Z M73.9599921,13.0490722 C72.8908609,13.0490722 71.8426716,13.4023918 71.0351286,13.9754227 L71.0351286,9.82985567 C71.0351286,9.19039175 70.5112176,8.6388866 69.8344686,8.6388866 C69.1797636,8.6388866 68.6558526,9.19039175 68.6558526,9.82985567 L68.6558526,18.5626392 C68.6558526,18.5626392 68.6558526,18.5626392 68.6558526,18.5841649 L68.6558526,22.8844948 C68.6558526,23.5243299 69.1797636,24.0750928 69.8344686,24.0750928 C70.4237766,24.0750928 70.882658,23.6560825 70.9914081,23.1272165 C71.820995,23.7006186 72.8684496,24.0750928 73.9599921,24.0750928 C76.9072669,24.0750928 79.2652337,21.5610309 79.2652337,18.5841649 C79.2652337,15.563134 76.9072669,13.0490722 73.9599921,13.0490722 L73.9599921,13.0490722 Z" id="Fill-4" fill="#1C75BC"></path>
                <path d="M89.7192051,20.7675464 C89.1732502,21.3409485 88.4531481,21.6716289 87.6669142,21.6716289 C86.8597386,21.6716289 86.1605783,21.3409485 85.6153582,20.7675464 C85.0694033,20.2160412 84.7420507,19.4221856 84.7420507,18.5841649 C84.7420507,17.7019794 85.0694033,16.9081237 85.6153582,16.3573608 C86.1605783,15.7839588 86.8597386,15.4529072 87.6669142,15.4529072 C88.4531481,15.4529072 89.1732502,15.7839588 89.7192051,16.3573608 C90.2647926,16.9081237 90.5925125,17.7019794 90.5925125,18.5841649 C90.5925125,19.4221856 90.2647926,20.2160412 89.7192051,20.7675464 Z M87.6669142,13.0490722 C86.5974157,13.0490722 85.5495938,13.4023918 84.7420507,13.9754227 L84.7420507,9.82985567 C84.7420507,9.19039175 84.2181398,8.6388866 83.5413908,8.6388866 C82.8866858,8.6388866 82.3627748,9.19039175 82.3627748,9.82985567 L82.3627748,18.5626392 C82.3627748,18.5626392 82.3627748,18.5626392 82.3627748,18.5841649 L82.3627748,22.8844948 C82.3627748,23.5243299 82.8866858,24.0750928 83.5413908,24.0750928 C84.1306988,24.0750928 84.5895802,23.6560825 84.6983303,23.1272165 C85.5279172,23.7006186 86.5753718,24.0750928 87.6669142,24.0750928 C90.6138217,24.0750928 92.9721559,21.5610309 92.9721559,18.5841649 C92.9721559,15.563134 90.6138217,13.0490722 87.6669142,13.0490722 L87.6669142,13.0490722 Z" id="Fill-5" fill="#1C75BC"></path>
                <path d="M103.070852,20.8558763 C102.546941,21.4066392 101.804795,21.7157938 101.040973,21.7157938 C100.254739,21.7157938 99.5122257,21.4066392 99.0103586,20.8558763 C98.4864476,20.2824742 98.1811391,19.4886186 98.1811391,18.5841649 C98.1811391,17.6581856 98.4864476,16.8643299 99.0103586,16.3131959 C99.5122257,15.7175258 100.254739,15.4087423 101.040973,15.4087423 C101.804795,15.4087423 102.546941,15.7175258 103.070852,16.3131959 C103.594396,16.8643299 103.922116,17.6581856 103.922116,18.5841649 C103.922116,19.4886186 103.594396,20.2824742 103.070852,20.8558763 Z M105.079423,13.0490722 C104.511791,13.0490722 104.074954,13.4680825 103.943792,14.0199588 C103.11494,13.4242887 102.132148,13.0490722 101.040973,13.0490722 C99.5563135,13.0490722 98.2678452,13.6889072 97.3295082,14.7032165 C96.3908037,15.6956289 95.8448488,17.0628866 95.8448488,18.5841649 C95.8448488,20.0839175 96.3908037,21.4511753 97.3295082,22.4654845 C98.2678452,23.4578969 99.5563135,24.0750928 101.040973,24.0750928 C102.132148,24.0750928 103.11494,23.7225155 103.943792,23.1272165 C104.074954,23.6560825 104.511791,24.0750928 105.079423,24.0750928 C105.712451,24.0750928 106.235995,23.5458557 106.235995,22.9063918 L106.235995,14.2400412 C106.235995,13.5786804 105.712451,13.0490722 105.079423,13.0490722 L105.079423,13.0490722 Z" id="Fill-6" fill="#1C75BC"></path>
                <path d="M113.969744,13.0490722 L113.423422,13.0490722 L113.423422,9.85138144 C113.423422,9.16812371 112.899878,8.6388866 112.223129,8.6388866 C111.54638,8.6388866 111.000425,9.16812371 111.000425,9.85138144 L111.000425,13.0490722 L110.367397,13.0490722 C109.691015,13.0490722 109.167104,13.5786804 109.167104,14.2623093 C109.167104,14.923299 109.691015,15.4751753 110.367397,15.4751753 L111.000425,15.4751753 L111.000425,21.6274639 C111.000425,22.9724536 112.092335,24.0750928 113.423422,24.0750928 C114.100538,24.0750928 114.624449,23.5458557 114.624449,22.8625979 C114.624449,22.1789691 114.100538,21.6274639 113.423422,21.6274639 L113.423422,15.4751753 L113.969744,15.4751753 C114.624449,15.4751753 115.192081,14.923299 115.192081,14.2623093 C115.192081,13.5786804 114.624449,13.0490722 113.969744,13.0490722" id="Fill-7" fill="#1C75BC"></path>
                <path d="M119.512325,8.6388866 C118.857988,8.6388866 118.333709,9.16812371 118.333709,9.82985567 L118.333709,10.2930309 C118.333709,10.9540206 118.857988,11.5058969 119.512325,11.5058969 C120.189442,11.5058969 120.690941,10.9540206 120.690941,10.2930309 L120.690941,9.82985567 C120.690941,9.16812371 120.189442,8.6388866 119.512325,8.6388866" id="Fill-8" fill="#1C75BC"></path>
                <path d="M119.512325,13.0717113 C118.857988,13.0717113 118.333709,13.5786804 118.333709,14.2842062 L118.333709,22.8844948 C118.333709,23.5458557 118.857988,24.0750928 119.512325,24.0750928 C120.189442,24.0750928 120.690941,23.5458557 120.690941,22.8844948 L120.690941,14.2842062 C120.690941,13.5786804 120.189442,13.0717113 119.512325,13.0717113" id="Fill-9" fill="#1C75BC"></path>
                <path d="M129.225988,15.4087423 C130.033898,15.4087423 130.731956,15.6956289 131.299588,16.1146392 C131.801822,16.5113814 132.500615,16.4234227 132.937453,15.8941856 C133.286482,15.4087423 133.199041,14.6594227 132.696806,14.2623093 C131.758469,13.5345155 130.535765,13.0490722 129.225988,13.0490722 C126.213316,13.0717113 123.681202,15.5193402 123.681202,18.5841649 C123.681202,21.605567 126.213316,24.0750928 129.225988,24.0750928 C130.535765,24.0750928 131.758469,23.5900206 132.696806,22.9063918 C133.199041,22.4654845 133.286482,21.7599588 132.937453,21.2748866 C132.500615,20.7456495 131.780146,20.6576907 131.299588,21.0321649 C130.731956,21.4511753 130.011854,21.7376907 129.225988,21.7376907 C127.457696,21.7376907 125.995448,20.2824742 125.995448,18.5841649 C125.995448,16.8865979 127.457696,15.4087423 129.225988,15.4087423" id="Fill-10" fill="#1C75BC"></path>
                <path d="M142.9781,20.8558763 C142.453822,21.4066392 141.712043,21.7157938 140.948221,21.7157938 C140.161987,21.7157938 139.419473,21.4066392 138.917606,20.8558763 C138.393695,20.2824742 138.088019,19.4886186 138.088019,18.5841649 C138.088019,17.6581856 138.393695,16.8643299 138.917606,16.3131959 C139.419473,15.7175258 140.161987,15.4087423 140.948221,15.4087423 C141.712043,15.4087423 142.453822,15.7175258 142.9781,16.3131959 C143.501644,16.8643299 143.829364,17.6581856 143.829364,18.5841649 C143.829364,19.4886186 143.501644,20.2824742 142.9781,20.8558763 Z M144.98667,13.0490722 C144.419039,13.0490722 143.982202,13.4680825 143.85104,14.0199588 C143.021821,13.4242887 142.039028,13.0490722 140.948221,13.0490722 C139.463561,13.0490722 138.175093,13.6889072 137.236756,14.7032165 C136.298051,15.6956289 135.752096,17.0628866 135.752096,18.5841649 C135.752096,20.0839175 136.298051,21.4511753 137.236756,22.4654845 C138.175093,23.4578969 139.463561,24.0750928 140.948221,24.0750928 C142.039028,24.0750928 143.021821,23.7225155 143.85104,23.1272165 C143.982202,23.6560825 144.419039,24.0750928 144.98667,24.0750928 C145.619332,24.0750928 146.142875,23.5458557 146.142875,22.9063918 L146.142875,14.2400412 C146.142875,13.5786804 145.619332,13.0490722 144.98667,13.0490722 L144.98667,13.0490722 Z" id="Fill-11" fill="#1C75BC"></path>
                <g id="Group-15">
                    <mask id="mask-2" fill="white">
                        <use xlink:href="#path-1"></use>
                    </mask>
                    <g id="Clip-13"></g>
                    <path d="M149.712891,9.85138144 L149.712891,22.8625979 C149.712891,23.5243299 150.258846,24.0750928 150.913551,24.0750928 C151.5903,24.0750928 152.135888,23.5243299 152.135888,22.8625979 L152.135888,9.85138144 C152.135888,9.19039175 151.5903,8.6388866 150.913551,8.6388866 C150.258846,8.6388866 149.712891,9.19039175 149.712891,9.85138144 Z" id="Fill-12" fill="#1C75BC" mask="url(#mask-2)"></path>
                    <path d="M36.26963,20.5530309 L29.9676349,31.5797938 C29.0954296,33.1055258 27.4707912,34.0526598 25.7271155,34.0526598 L13.1227578,34.0526598 C11.3790821,34.0526598 9.75481106,33.1055258 8.88260581,31.5797938 L2.58024323,20.5530309 C1.70877279,19.027299 1.70877279,17.1326598 2.58024323,15.6069278 L8.88260581,4.58016495 C9.75444366,3.05480412 11.3790821,2.10729897 13.1227578,2.10729897 L25.7271155,2.10729897 C27.4707912,2.10729897 29.0954296,3.05480412 29.9676349,4.58016495 L36.26963,15.6069278 C37.1414679,17.1326598 37.1414679,19.027299 36.26963,20.5530309 Z M31.6367286,3.60630928 C30.4213726,1.48082474 28.1570926,0.160329897 25.7271155,0.160329897 L13.1227578,0.160329897 C10.6927807,0.160329897 8.42850064,1.48082474 7.21351212,3.60630928 L0.911149539,14.6334433 C-0.303838979,16.759299 -0.303838979,19.4002887 0.911149539,21.5265155 L7.21351212,32.5536495 C8.42850064,34.6795052 10.6927807,36 13.1227578,36 L25.7271155,36 C28.1567252,36 30.4213726,34.6795052 31.6367286,32.5536495 L37.9387237,21.5265155 C39.1540797,19.4002887 39.1540797,16.759299 37.9387237,14.6334433 L31.6367286,3.60630928 L31.6367286,3.60630928 Z" id="Fill-14" fill="#1C75BC" mask="url(#mask-2)"></path>
                </g>
                <path d="M19.4251203,20.7456495 C16.7813171,20.7456495 14.6309307,18.5726598 14.6309307,15.9030928 C14.6309307,13.2335258 16.7813171,11.0601649 19.4251203,11.0601649 C22.0689236,11.0601649 24.2189426,13.2335258 24.2189426,15.9030928 C24.2189426,18.5726598 22.0689236,20.7456495 19.4251203,20.7456495 Z M19.4251203,8.6388866 C15.4539045,8.6388866 12.2340196,11.8915052 12.2340196,15.9030928 C12.2340196,19.9143093 18.2266648,28.0094845 19.4251203,28.0094845 C20.6235759,28.0094845 26.6158537,19.9143093 26.6158537,15.9030928 C26.6158537,11.8915052 23.3963362,8.6388866 19.4251203,8.6388866 L19.4251203,8.6388866 Z" id="Fill-16" fill="#1C75BC"></path>
            </g>
        </g>
    </g>
</svg>